PathFileType	4	(X/Y/Z)	Patient4_TMGait_0pt7_01_right_33.trc.trc
DataRate	CameraRate	NumFrames	NumMarkers	Units	OrigDataRate	OrigDataStartFrame	OrigNumFrames
86.956521739130	86.956521739130	4	33	mm	86.956521739130	53	       141
Frame#	Time	Sacral			L.Shoulder			Chest			R.Shoulder			Neck			R.ASIS			L.ASIS			R.Thigh.Superior			R.Thigh.Lateral			R.Thigh.Inferior			R.Patella			L.Thigh.Superior			L.Thigh.Lateral			L.Thigh.Inferior			L.Patella			L.Shank.Superior			L.Shank.Lateral			L.Shank.Inferior			R.Shank.Superior			R.Shank.Lateral			R.Shank.Inferior			R.Heel			R.Midfoot.Superior			R.Midfoot.Lateral			R.Toe			L.Heel			L.Midfoot.Lateral			L.Midfoot.Superior			L.Toe			L.Elbow			L.Wrist			R.Elbow			R.Wrist			
		X1	Y1	Z1	X2	Y2	Z2	X3	Y3	Z3	X4	Y4	Z4	X5	Y5	Z5	X6	Y6	Z6	X7	Y7	Z7	X8	Y8	Z8	X9	Y9	Z9	X10	Y10	Z10	X11	Y11	Z11	X12	Y12	Z12	X13	Y13	Z13	X14	Y14	Z14	X15	Y15	Z15	X16	Y16	Z16	X17	Y17	Z17	X18	Y18	Z18	X19	Y19	Z19	X20	Y20	Z20	X21	Y21	Z21	X22	Y22	Z22	X23	Y23	Z23	X24	Y24	Z24	X25	Y25	Z25	X26	Y26	Z26	X27	Y27	Z27	X28	Y28	Z28	X29	Y29	Z29	X30	Y30	Z30	X31	Y31	Z31	X32	Y32	Z32	X33	Y33	Z33	

53	38.158000000000	772.256003895641	1011.832983768395	542.077122656211	955.826141389843	1429.731542725771	338.042631361067	1073.553192944410	1352.474487209107	486.855447108077	1015.935810010136	1436.011785666732	667.276290505448	984.989832655606	1490.894466323440	490.232467009443	1008.157473282097	942.540333705938	637.307060117480	967.461170890036	959.815439615147	365.592939136812	1038.450897517897	739.987511609295	606.229069695023	955.115497074933	633.273088084418	667.856948296298	1025.040066960911	579.943394628060	583.063114777468	1021.645308674541	492.546443757214	586.873554201533	1063.521541826433	801.986109974252	390.583559250858	1032.995947744713	674.467887697100	305.878497464363	1147.008065105624	623.458394887679	360.790529640558	1172.311068014854	536.037126287887	348.673764155305	1114.921616820286	461.001228351815	342.591018345961	979.178674300738	398.780045972312	299.409850377582	990.120722637451	267.380722413886	349.933935708330	993.356519866799	404.638287498589	594.035625700132	922.921096741940	299.627516393612	654.480720463742	963.631673333250	206.420782345367	586.879341343375	830.206403206948	42.499232868286	550.779894065822	1000.689853770327	96.898199362701	590.881540869048	911.886507708428	36.270043351863	626.812323537094	1120.479761151993	44.256508617010	620.721509107495	815.314985512471	179.126941969728	395.171096042647	872.652802640716	137.821779215381	312.571240032929	976.977828416405	157.351267047346	327.927522186895	1064.124546632970	53.165713702780	297.593669810799	880.301247789878	1078.991778301570	244.639725981346	966.775786598777	830.983921850271	244.732068754482	1031.782901655408	1089.616340061688	796.646039675229	1202.626167636659	897.652357682219	749.923741391725	
54	38.169500000000	771.228437885967	1012.777718402449	543.581554694537	954.218359566432	1430.056546215473	338.848868505120	1072.968571256042	1352.467548410557	486.623096193861	1017.105504760185	1436.196683594409	667.568409060888	984.528865508772	1491.167221000748	490.892840759476	1007.190452589284	942.630606286447	637.460276686758	965.324924497124	960.212148881097	366.020035514914	1034.240199670189	739.279329467236	606.328563452899	949.582759165856	633.583476201512	668.790868227088	1018.191618500805	579.182365390937	583.959080610396	1013.591682903292	492.365754337073	587.855785133919	1061.877931528909	804.466157707248	391.427275437061	1033.622818650131	676.950238494684	305.739398619867	1147.801119830937	627.281959962345	361.145574566453	1174.945564428732	541.070946460164	348.365533994681	1120.851316068910	464.589344832494	341.851110386663	988.474314353472	395.371386454605	298.883909838589	1006.928616749862	264.321192467229	348.544674620591	985.301187268892	404.726110467408	594.970224483545	914.665477036991	299.715063926796	655.250133656080	955.484539606589	206.540029347496	587.471052102509	822.093774786950	42.542722757842	550.862844662315	992.663202104362	96.914817514779	591.179714485499	903.771758980106	36.229202938250	626.909851277238	1112.363114054384	44.062872526721	620.776586302555	837.559125678571	165.863112066997	394.142186200292	896.712550426261	128.487752424095	310.936922636736	999.900996546355	153.930947221154	325.888378774614	1092.867154233321	55.260249397275	294.345874733293	873.373519877866	1080.027880950468	247.497364150998	942.775610666495	826.801192624388	245.924354916288	1043.265965748849	1090.920671601808	796.971423970600	1224.427084130337	910.330387539296	745.872128493189	
55	38.181000000000	770.261374635284	1013.579130951252	544.855254858198	952.754344194494	1430.303549077713	339.578052058132	1072.433509008649	1352.318325760896	486.348774645652	1018.230131454428	1436.202691102899	667.794404672161	984.109769272499	1491.303467360386	491.514633278926	1006.247295826640	942.670664437057	637.569918607889	963.403718789332	960.382226027851	366.344023176608	1030.029687612885	738.538691100057	606.569787406985	943.915660670196	633.894247280891	669.744636351810	1011.297587364253	578.406117991343	585.012612684752	1005.518576121945	492.198428057297	589.006753434567	1060.059730650474	806.290020892195	392.216480354763	1033.865094539181	678.860570971025	305.574396462166	1147.978688658031	630.289348017841	361.603636444614	1176.812545909820	545.437122085315	348.189503328328	1126.155222621434	467.742275849051	341.214246419271	997.753631945092	391.516358058784	298.219289292399	1023.847625449884	261.260851419124	347.085412978089	977.178785374050	404.841995475288	595.978954037879	906.299861081859	299.822937422283	656.026199857517	947.296904731772	206.688830589509	588.119028942907	813.983507828227	42.594974621198	550.940314749548	984.630022228604	96.919029970332	591.469142167851	895.653077499133	36.192822363044	627.016298427895	1104.241852504753	43.869913049294	620.834519223075	860.627328189042	152.709803468473	392.772099206692	921.511985209019	119.442227306925	309.080566298846	1023.147393143202	150.800210126212	323.824483381478	1121.710649595461	58.015246564770	291.272107489422	866.260831941984	1081.319514302087	249.864854897495	919.413042579768	824.306734636704	247.192232210936	1054.510659461911	1092.396915640410	797.064073859238	1245.265545757091	923.866816694764	741.621741184176	
56	38.192500000000	769.357566589511	1014.223700178226	545.892616147649	951.445079652767	1430.464791882813	340.216362501786	1071.948128693297	1352.021808727604	486.032451898731	1019.294601021054	1436.022110765041	667.951552428685	983.745225266075	1491.295725363696	492.087263893850	1005.323879515206	942.660305353885	637.665196086812	961.716198023862	960.308777484339	366.564351183622	1025.851751079717	737.760558597936	606.989866628035	938.127729706993	634.199364245663	670.708370177555	1004.394702430652	577.617013674130	586.217847848513	997.467689654661	492.031333343768	590.304526827900	1058.102246736846	807.445938756969	392.946420329681	1033.715795758156	680.162336660122	305.396451917869	1147.572018820364	632.445758039549	362.139712169569	1177.939830377342	549.092233393190	348.164528987015	1130.825137386798	470.445068222673	340.726409097099	1007.027414316176	387.322862238612	297.385903552504	1040.739676897979	258.338046329653	345.594582459425	969.020781359734	404.976718180629	597.038316246508	897.851378088797	299.950467730576	656.796772313818	939.083853115529	206.863376195228	588.808834380258	805.872364029658	42.653539558627	551.017704101506	976.584946486414	96.906578370193	591.737936752349	887.529559238710	36.164062535624	627.136240988958	1096.116810138226	43.686151905695	620.897284755846	884.315492829884	139.948305515597	391.009436354487	946.882994820943	110.935959672350	307.006867608085	1046.525017106091	148.137822231884	321.800436236367	1150.401847793984	61.585580713166	288.545230666307	858.947497454733	1082.874465822104	251.738085681253	896.985943654926	823.329739193643	248.550424112917	1065.481716020423	1094.012042091521	796.909166077914	1265.043824769763	938.156261850310	737.182563540998	
